<!-- icon666.com - MILLIONS vector ICONS FREE --><svg id="Capa_1" enable-background="new 0 0 512 512" viewBox="0 0 512 512" xmlns="http://www.w3.org/2000/svg"><g><g><path d="m471.106 473.711h-430.212l150-172.766h130.212z" fill="#596c76"></path><path d="m321.106 300.946h-30l150 172.765h30z" fill="#465a61"></path><path d="m494.5 504.5h-477c-5.523 0-10-4.477-10-10 0-28.486 23.092-51.578 51.578-51.578h393.843c28.486 0 51.578 23.092 51.578 51.578.001 5.523-4.476 10-9.999 10z" fill="#7a8c98"></path><path d="m452.922 442.921h-30c28.486 0 51.578 23.093 51.578 51.579 0 5.523-4.477 10-10 10h30c5.523 0 10-4.477 10-10 0-28.486-23.093-51.579-51.578-51.579z" fill="#596c76"></path><g><circle cx="256" cy="218.482" fill="#60b7ff" r="178.853"></circle><path d="m256 39.629c-5.053 0-10.053.221-15 .632 91.757 7.621 163.853 84.496 163.853 178.221s-72.096 170.601-163.853 178.221c4.947.411 9.947.632 15 .632 98.778 0 178.853-80.075 178.853-178.853s-80.075-178.853-178.853-178.853z" fill="#26a6fe"></path><path d="m256 365.206c-40.386 0-77.013-16.402-103.571-42.894-12.1-12.07-10.702-29.184-18.024-44.846-8.802-18.826-25.128-36.866-25.128-58.984 0-40.452 16.455-77.133 43.023-103.701 14.602-14.602 37.451-15.498 57.109-22.937 16.11-6.097 28.372-20.086 46.591-20.086 40.452 0 77.133 16.455 103.701 43.023 15.154 15.154 14.009 40.683 21.406 61.24 5.571 15.484 21.617 25.082 21.617 42.461 0 40.452-16.455 77.133-43.023 103.701-11.022 11.022-30.48 12.407-44.531 19.495-19.817 9.997-35.5 23.528-59.17 23.528z" fill="#fe646f"></path><path d="m256 71.759c-5.063 0-10.067.258-15 .761 73.884 7.537 131.724 70.122 131.724 145.962s-57.84 138.426-131.724 145.962c4.933.503 9.937.761 15 .761 29.214 0 50.47-11.774 73.362-26.55 8.806-5.684 22.958-9.092 30.339-16.473 26.568-26.568 43.023-63.249 43.023-103.701 0-22.184-9.346-38.183-18.197-57.053-7.289-15.539-12.828-34.649-24.826-46.648-26.568-26.566-63.249-43.021-103.701-43.021z" fill="#fd4755"></path><g><path d="m256 365.206c40.384 0 77.009-16.402 103.566-42.891 0-.002 0-.005 0-.007l-103.566-103.567z" fill="#ffd15b"></path><path d="m359.566 322.314c0-.002 0-.005 0-.007l-16.062-16.062c-21.05 28.111-51.933 48.447-87.504 55.867v3.093c40.384.001 77.008-16.401 103.566-42.891z" fill="#ffc344"></path><path d="m255.203 71.769c-40.001.215-76.263 16.513-102.634 42.75-.058.27-.105.503-.135.656l103.566 103.566c0-48.822 0-97.643 0-146.465-.111-.075-.392-.256-.797-.507z" fill="#ffd15b"></path></g><g><path d="m109.282 218.948c.126 40.331 16.605 76.884 43.145 103.359h.007l103.566-103.566c-48.822 0-97.643 0-146.465 0-.085.068-.167.139-.253.207z" fill="#ffd15b"></path><path d="m359.566 115.175-103.566 103.566h146.465c.088-.066.171-.137.258-.205 0-.018.001-.036.001-.054 0-40.282-16.321-76.821-42.692-103.362-.156.02-.311.033-.466.055z" fill="#ffd15b"></path><path d="m360.031 115.12c-.155.018-.31.036-.465.055l-15.842 15.842c18.206 24.441 28.999 54.715 28.999 87.466 0 .086-.003.172-.003.259h29.744c.088-.066.171-.137.258-.205 0-.018.001-.036.001-.054.001-40.283-16.32-76.822-42.692-103.363z" fill="#ffc344"></path></g><circle cx="256" cy="218.482" fill="#60b7ff" r="32.766"></circle><path d="m256 185.716c-5.404 0-10.502 1.323-15 3.65 10.541 5.453 17.766 16.453 17.766 29.116s-7.226 23.664-17.766 29.116c4.498 2.327 9.596 3.65 15 3.65 18.067 0 32.766-14.699 32.766-32.766s-14.699-32.766-32.766-32.766z" fill="#26a6fe"></path><path d="m293.166 18.128-30.355 66.024c-2.676 5.82-10.947 5.82-13.623 0l-30.355-66.024c-2.283-4.966 1.346-10.628 6.812-10.628h60.71c5.466 0 9.095 5.662 6.811 10.628z" fill="#596c76"></path><path d="m286.355 7.5h-30c5.466 0 9.095 5.662 6.811 10.628l-22.166 48.214 8.189 17.811c2.676 5.821 10.947 5.821 13.623 0l30.355-66.024c2.283-4.967-1.346-10.629-6.812-10.629z" fill="#465a61"></path></g></g><path d="m452.922 435.422h-5.13l-67.737-78.015c38.203-34.15 62.294-83.774 62.294-138.927 0-44.97-16.237-88.395-45.721-122.276-27.005-31.033-63.416-52.207-103.368-60.328l6.719-14.615c2.146-4.666 1.772-10.032-.998-14.355-2.77-4.324-7.491-6.906-12.627-6.906h-60.709c-5.136 0-9.856 2.582-12.628 6.906-2.771 4.324-3.144 9.69-.998 14.355l6.725 14.628c-29.049 5.905-56.405 18.725-79.622 37.44-3.225 2.6-3.731 7.321-1.132 10.546 1.481 1.838 3.652 2.793 5.844 2.793 1.652 0 3.315-.544 4.702-1.662 22.266-17.948 48.662-30.021 76.649-35.107l7.418 16.135c-75.229 11.495-130.823 76.577-130.823 152.446 0 85.043 69.193 154.23 154.22 154.23 85.029 0 154.22-69.188 154.22-154.23 0-76.298-56.084-141.026-130.824-152.444l7.414-16.127c38.083 6.92 72.889 26.708 98.504 56.142 27.107 31.15 42.036 71.079 42.036 112.429 0 94.483-76.867 171.35-171.35 171.35s-171.35-76.867-171.35-171.35c0-40.139 14.16-79.167 39.873-109.895 2.658-3.177 2.238-7.907-.938-10.565-3.177-2.658-7.907-2.239-10.565.939-27.967 33.422-43.37 75.869-43.37 119.521 0 55.152 24.092 104.777 62.294 138.927l-67.737 78.015h-5.13c-32.575 0-59.077 26.502-59.077 59.078 0 9.649 7.851 17.5 17.5 17.5h477c9.649 0 17.5-7.851 17.5-17.5 0-32.576-26.502-59.078-59.078-59.078zm-213.767-355.138 3.219 7.002c1.342 2.919 3.495 5.233 6.126 6.745v84.896c-5.596 1.059-10.786 3.275-15.31 6.397l-70.278-70.278c21.28-19.189 47.812-31.319 76.243-34.762zm-86.829 45.39 70.301 70.301c-3.059 4.521-5.213 9.698-6.229 15.266h-99.425c1.642-31.711 14.035-61.782 35.353-85.567zm-35.326 100.566h99.491c1.078 5.498 3.277 10.597 6.351 15.051l-70.277 70.276c-20.613-22.885-33.759-52.618-35.565-85.327zm131.5 131.266c-32.683-1.744-62.405-14.815-85.313-35.346l70.305-70.305c4.451 3.012 9.537 5.147 15.008 6.182zm-17.767-139.024c0-13.912 11.304-25.233 25.209-25.265.02 0 .038.003.058.003s.038-.003.058-.003c13.905.031 25.209 11.353 25.209 25.265 0 13.932-11.335 25.266-25.267 25.266s-25.267-11.334-25.267-25.266zm32.767 139.024v-99.469c5.471-1.035 10.557-3.171 15.008-6.182l70.305 70.305c-22.908 20.531-52.63 33.603-85.313 35.346zm95.935-45.939-70.277-70.276c3.073-4.454 5.273-9.553 6.351-15.051h99.491c-1.806 32.709-14.952 62.442-35.565 85.327zm35.591-100.327h-99.425c-1.016-5.569-3.17-10.745-6.229-15.266l70.301-70.301c21.319 23.786 33.712 53.857 35.353 85.567zm-45.939-96.194-70.278 70.278c-4.524-3.121-9.713-5.338-15.31-6.397v-84.896c2.631-1.513 4.784-3.826 6.126-6.745l3.219-7.002c28.432 3.443 54.964 15.573 76.243 34.762zm-62.734-100.051c-.001 0-.001 0 0 0l-30.35 66.025-30.357-66.02 60.718-.034c-.001 0-.003.01-.011.029zm208.147 482.005h-477c-1.379 0-2.5-1.121-2.5-2.5 0-24.305 19.773-44.078 44.078-44.078h292.028c4.143 0 7.5-3.357 7.5-7.5s-3.357-7.5-7.5-7.5h-267.034l59.449-68.47c31.281 23.756 70.26 37.878 112.479 37.878s81.198-14.122 112.479-37.878l59.449 68.47h-41.821c-4.143 0-7.5 3.357-7.5 7.5s3.357 7.5 7.5 7.5h66.815c24.305 0 44.078 19.773 44.078 44.078 0 1.379-1.121 2.5-2.5 2.5z"></path></g></svg>