<!-- icon666.com - MILLIONS vector ICONS FREE --><svg id="Capa_1" enable-background="new 0 0 511.958 511.958" viewBox="0 0 511.958 511.958" xmlns="http://www.w3.org/2000/svg"><g><g><g><g><path d="m324.311 99.532c-13.84-13.944-13.84-36.552 0-50.496l-41.255-41.565-241.898 243.721 41.262 41.572c.096-.099.186-.203.284-.301 13.84-13.944 36.278-13.944 50.118 0s13.84 36.552 0 50.496c-.098.098-.2.189-.299.286l41.262 41.572 241.899-243.72-41.254-41.565c-13.841 13.944-36.28 13.944-50.119 0z" fill="#eaf3f9"></path><path d="m324.311 99.532c-13.84-13.944-13.84-36.552 0-50.496l-41.255-41.565-241.898 243.721 41.262 41.572c.096-.099.186-.203.284-.301 13.84-13.944 36.278-13.944 50.118 0s13.84 36.552 0 50.496c-.098.098-.2.189-.299.286l41.262 41.572 241.899-243.72-41.254-41.565c-13.841 13.944-36.28 13.944-50.119 0z" fill="#eaf3f9"></path><g><path d="m395.568 120.831-241.283 243.101-21.142-21.301c-.106.11-.213.219-.321.328-.098.099-.2.189-.299.286l41.262 41.572 241.898-243.72z" fill="#deedf8"></path></g><g><path d="m291.924 195.535c3.806-3.309 6.223-8.2 6.23-13.658.012-9.949-7.974-18.005-17.839-17.992-9.858.013-23.822 7.296-35.698 14.881 7.522-11.979 14.745-26.065 14.758-36.008.013-9.949-7.974-18.004-17.839-17.992-5.412.007-10.262 2.444-13.542 6.283-3.271-3.831-8.114-6.256-13.526-6.249-9.865.013-17.872 8.088-17.884 18.038-.012 9.956 7.193 24.046 14.695 36.016-11.867-7.566-25.835-14.831-35.705-14.819-9.865.013-17.872 8.088-17.884 18.038-.007 5.459 2.398 10.344 6.196 13.642-3.807 3.309-6.223 8.199-6.23 13.658-.012 9.949 7.974 18.005 17.839 17.992 9.858-.013 23.822-7.296 35.698-14.882-7.522 11.979-14.745 26.065-14.758 36.008-.013 9.949 7.974 18.004 17.839 17.992 5.412-.007 10.262-2.444 13.542-6.283 3.271 3.831 8.114 6.256 13.526 6.249 9.865-.013 17.872-8.088 17.884-18.038.013-9.956-7.193-24.046-14.695-36.016 11.867 7.565 25.835 14.831 35.705 14.819 9.865-.013 17.872-8.088 17.884-18.038.007-5.458-2.398-10.343-6.196-13.641z" fill="#b3e59f"></path></g></g><g><path d="m41.158 251.192 41.262 41.572c.096-.099.186-.203.284-.301 13.84-13.944 36.278-13.944 50.118 0s13.84 36.552 0 50.496c-.098.098-.2.189-.299.286l41.262 41.572 56.281-56.705-132.627-133.626z" fill="#e28086"></path><path d="m324.311 49.036-41.255-41.565-56.281 56.705 132.627 133.626 56.282-56.705-41.254-41.565c-13.84 13.944-36.279 13.944-50.118 0-13.841-13.944-13.841-36.552-.001-50.496z" fill="#e28086"></path><g><path d="m395.757 121.021-56.281 56.705 19.926 20.076 56.281-56.705z" fill="#dd636e"></path></g></g></g><g><g><g><g><path d="m395.313 275.416c-9.232-17.388-2.726-39.025 14.532-48.326l-27.52-51.831-301.646 162.581 27.525 51.841c.121-.067.237-.139.359-.205 17.258-9.302 38.733-2.747 47.965 14.642 9.232 17.388 2.726 39.025-14.532 48.326-.122.066-.246.123-.368.187l27.525 51.841 301.647-162.582-27.52-51.831c-17.259 9.301-38.734 2.746-47.967-14.643z" fill="#eaf3f9"></path></g></g><g><path d="m443.279 290.058c-.015.008-.03.016-.045.024l11.113 20.93-301.602 162.558 16.407 30.902 301.647-162.582z" fill="#deedf8"></path></g></g></g></g><g><path d="m477.423 338.372-27.52-51.831c-1.85-3.485-6.527-5.055-10.183-3.085-13.417 7.234-30.683 1.813-37.783-11.557-7.289-13.73-2.146-30.871 11.467-38.208 3.63-1.957 4.999-6.477 3.065-10.119l-25.12-47.312 29.657-29.881c2.902-2.924 2.902-7.642 0-10.566l-41.255-41.565c-2.895-2.917-7.751-2.917-10.646 0-10.757 10.839-28.714 10.837-39.472 0-10.927-11.009-10.927-28.92 0-39.929 2.902-2.924 2.902-7.642 0-10.566l-41.253-41.565c-2.895-2.917-7.751-2.917-10.646 0l-13.334 13.435c-6.612 6.662 3.733 17.529 10.646 10.566l8.011-8.071 31.141 31.376c-11.729 16.835-10.132 40.288 4.79 55.321 14.475 14.585 38.166 16.769 54.979 4.898l31.149 31.384c-9.494 9.566-19.221 18.946-28.501 28.72l-22.426 12.087-116.847-117.727 7.691-7.749c6.612-6.662-3.736-17.533-10.646-10.566l-198.552 200.046c-2.902 2.924-2.902 7.642 0 10.566l41.262 41.573c3.15 3.173 7.911 2.606 10.931-.301 5.274-5.314 12.284-8.241 19.736-8.241 9.249 0 18.244 4.926 23.316 12.651l-53.958 29.082c-3.63 1.957-4.999 6.477-3.065 10.119l27.524 51.841c1.862 3.509 6.588 5.071 10.251 3.048 13.586-7.195 30.795-2.317 38.073 11.389 7.29 13.73 2.146 30.87-11.431 38.187-3.606 2.024-5.724 6.085-3.471 10.326l27.525 51.841c1.925 3.626 6.544 5.046 10.183 3.085l55.198-29.751c8.262-4.453 1.522-17.859-7.117-13.204l-48.555 26.17-20.757-39.094c16.325-12.639 21.688-35.728 11.672-54.594-9.691-18.253-31.886-27.329-51.593-20.594l-20.761-39.101 288.442-155.465 20.79 39.157c-16.067 12.693-21.29 35.598-11.342 54.336 9.623 18.123 31.572 27.211 51.196 20.726l20.794 39.164-205.164 110.58c-8.262 4.453-1.521 17.86 7.117 13.204l211.725-114.116c3.631-1.957 5-6.478 3.067-10.12zm-137.003-149.047-34.823 18.769c-.186-4.496-1.546-8.817-3.898-12.556 10.63-16.844-1.826-38.735-21.394-39.154-5 .006-10.817 1.368-17.551 4.125 2.754-6.814 4.113-12.695 4.12-17.742.025-19.645-22.329-32.086-38.884-21.545-16.581-10.521-38.883 2.017-38.907 21.605-.007 5.07 1.35 10.977 4.11 17.822-6.749-2.757-12.58-4.115-17.594-4.115-19.522.406-32.115 22.289-21.49 39.176-10.63 16.844 1.827 38.735 21.394 39.154 5-.006 10.817-1.368 17.551-4.125-2.754 6.814-4.113 12.695-4.12 17.743-.009 7.152 2.947 13.671 7.724 18.327l-10.99 5.924-77.662-78.247 118.769-119.663zm-128.669 69.35c-4.51-1.138-7.823-5.297-7.817-10.173.005-3.876 1.779-13.192 13.609-32.03 4.156-6.619-3.802-14.516-10.389-10.31-18.646 11.911-27.847 13.698-31.671 13.703-9.42-.104-13.855-12.253-6.679-18.49 3.393-2.949 3.391-8.376-.002-11.324-7.237-6.284-2.564-18.371 6.796-18.517 3.836 0 13.037 1.778 31.647 13.643 6.584 4.197 14.536-3.69 10.387-10.307-11.801-18.829-13.555-28.146-13.55-32.023.013-9.405 12.001-14.196 18.206-6.928 2.927 3.428 8.477 3.43 11.406.002 6.181-7.236 18.192-2.655 18.179 6.827-.005 3.876-1.779 13.192-13.609 32.03-4.156 6.619 3.802 14.515 10.389 10.31 18.646-11.911 27.847-13.698 31.671-13.703 9.42.104 13.855 12.253 6.679 18.49-3.391 2.949-3.391 8.375.003 11.322 7.234 6.285 2.565 18.372-6.796 18.518-3.836 0-13.037-1.778-31.649-13.643-6.585-4.197-14.533 3.691-10.386 10.308 5.25 8.377 9.095 15.843 11.323 21.951zm-73.606 28.505c-14.585-14.695-38.496-16.782-55.32-4.653l-31.1-31.335 45.714-46.058 74.461 75.021-27.584 14.867c-1.736-2.829-3.798-5.452-6.171-7.842z"></path><path d="m185.985 465.952c1.201 0 2.42-.29 3.552-.899l237.485-128c8.262-4.453 1.524-17.855-7.117-13.204l-237.485 128c-6.576 3.543-3.929 14.103 3.565 14.103z"></path><path d="m361.941 214.678-237.486 128c-8.276 4.461-1.489 17.841 7.117 13.204l237.486-128c8.262-4.453 1.523-17.858-7.117-13.204z"></path><path d="m181.623 377.028 12.721 3.883-3.868 12.863c-1.192 3.967 1.057 8.149 5.022 9.342 3.654 1.099 8.233-1.335 9.343-5.022l3.85-12.803 12.663 3.865c3.651 1.114 8.237-1.298 9.362-4.983 1.21-3.962-1.021-8.154-4.983-9.363l-12.722-3.884 3.868-12.863c1.192-3.967-1.057-8.149-5.022-9.342-3.966-1.195-8.149 1.055-9.343 5.022l-3.85 12.803-12.662-3.865c-3.957-1.208-8.153 1.022-9.362 4.984-1.211 3.962 1.021 8.154 4.983 9.363z"></path><path d="m245.712 376.053c3.654 1.099 8.233-1.335 9.343-5.022l3.85-12.803 12.663 3.865c3.651 1.114 8.238-1.298 9.362-4.984 1.21-3.961-1.021-8.153-4.983-9.363l-12.722-3.883 3.868-12.863c1.192-3.967-1.057-8.149-5.022-9.342-3.968-1.194-8.149 1.055-9.343 5.022l-3.85 12.803-12.663-3.865c-3.959-1.207-8.153 1.022-9.362 4.984-1.21 3.961 1.021 8.153 4.983 9.363l12.722 3.883-3.868 12.863c-1.193 3.967 1.056 8.15 5.022 9.342z"></path><path d="m295.924 348.989c3.654 1.099 8.233-1.335 9.343-5.022l3.85-12.803 12.662 3.865c3.651 1.114 8.238-1.298 9.362-4.984 1.21-3.961-1.021-8.153-4.983-9.363l-12.721-3.883 3.868-12.863c1.192-3.967-1.057-8.149-5.022-9.342-3.968-1.193-8.149 1.055-9.343 5.022l-3.85 12.803-12.663-3.865c-3.957-1.207-8.153 1.022-9.362 4.983-1.21 3.962 1.021 8.154 4.983 9.363l12.722 3.884-3.868 12.863c-1.192 3.967 1.057 8.15 5.022 9.342z"></path><path d="m346.136 321.926c3.654 1.099 8.233-1.335 9.343-5.022l3.85-12.803 12.663 3.865c3.651 1.114 8.238-1.298 9.362-4.984 1.21-3.961-1.021-8.153-4.983-9.363l-12.722-3.883 3.868-12.863c1.192-3.966-1.056-8.149-5.022-9.342-3.968-1.195-8.149 1.055-9.343 5.022l-3.85 12.803-12.663-3.865c-3.958-1.208-8.152 1.022-9.362 4.984-1.21 3.961 1.021 8.153 4.983 9.363l12.722 3.883-3.868 12.863c-1.192 3.966 1.056 8.149 5.022 9.342z"></path></g></g></svg>