<!-- icon666.com - MILLIONS vector ICONS FREE --><svg id="Capa_1" enable-background="new 0 0 512 512" viewBox="0 0 512 512" xmlns="http://www.w3.org/2000/svg"><g><g><path d="m512 399v-286h-256l-30 135.385 30 150.615z" fill="#0ed678"></path><path d="m0 113h256v286h-256z" fill="#04eb84"></path></g><g><path d="m357.333 328.248h-30v-143.782l28.291.006 52.1 82.914v-83.13h30v142.238h-28.29l-52.101-82.916z" fill="#e1dcf3"></path><path d="m266.334 184.256h30v143.992h-30z" fill="#e1dcf3"></path><path d="m208.006 183.752-14.964 75.187-20.998-72.823-27.562-.038-21.059 72.816-14.864-75.142h-30.581l28.43 143.725 28.466-.195 23.361-80.776 23.345 80.964 28.449-.195 28.565-143.523z" fill="#fff7f7"></path></g><g><g><path d="m271 57.511v-57.511h-15l-10 28.755 10 28.756z" fill="#fdcb02"></path><path d="m241 0h15v57.511h-15z" fill="#fddf02"></path></g><path d="m154.348 19.134h29.999v57.511h-29.999z" fill="#fddf02" transform="matrix(.914 -.405 .405 .914 -4.878 72.734)"></path><path d="m313.898 32.889h57.511v30h-57.511z" fill="#fdcb02" transform="matrix(.405 -.914 .914 .405 160.005 341.733)"></path></g><g><g><path d="m271 512v-57.511h-15l-9 28.756 9 28.755z" fill="#fdcb02"></path><path d="m241 454.489h15v57.511h-15z" fill="#fddf02"></path></g><path d="m140.592 449.111h57.511v29.999h-57.511z" fill="#fddf02" transform="matrix(.405 -.914 .914 .405 -323.575 430.864)"></path><path d="m327.653 435.355h30v57.511h-30z" fill="#fdcb02" transform="matrix(.914 -.405 .405 .914 -158.684 178.68)"></path></g></g></svg>