<!-- icon666.com - MILLIONS vector ICONS FREE --><svg id="Capa_1" enable-background="new 0 0 512 512" viewBox="0 0 512 512" xmlns="http://www.w3.org/2000/svg"><g><path d="m503.983 260.811c5.224 11.715 8.088 24.697 8.016 38.358-.268 50.578-38.461 88.977-89.039 89.492-7.367.072-14.538-.711-21.43-2.256-1.442-.33-2.802.783-2.802 2.256 0 12.858-5.471 25.263-14.146 34.464-8.685 9.19-20.585 15.176-33.433 15.176-14.136 0-28.859-6.305-37.39-16.248-3.431-3.987-9.345-4.647-13.507-1.442-14.404 11.096-32.434 17.69-52.01 17.69-14.981 0-29.054-3.853-41.284-10.643-.69-.381-1.401-.701-2.133-.958-5.244-1.844-11.189-.381-15.011 3.884-8.521 9.499-20.895 15.475-34.659 15.475-23.625 0-43.149-17.608-46.147-40.419-.464-3.524-3.503-6.13-7.058-6.13-27.045 0-52.185-11.055-70.74-28.859-18.547-17.803-30.498-42.375-31.178-69.411-.371-14.939 2.504-29.158 7.975-42.016 3.41-8.016 3.132-17.113-.917-24.82-4.523-8.613-7.088-18.422-7.088-28.828 0-34.278 27.787-62.065 62.055-62.065 2.658 0 5.275.165 7.841.495 8.685 1.092 17.01-4.204 19.607-12.57 11.467-37.029 45.436-64.167 85.917-65.445.999-.031 1.999-.052 3.009-.052 24.377 0 46.58 9.376 63.168 24.717 5.739 5.316 14.228 6.408 21.121 2.71 14.177-7.604 30.373-11.92 47.59-11.92 17.68 0 34.299 4.554 48.744 12.549 5.358 2.957 12.065 1.721 15.918-3.039 9.51-11.715 24.583-18.731 41.202-16.99 23.584 2.462 41.614 22.739 41.521 46.456v.423c-.082 5.986 3.194 11.539 8.644 14.002 26.932 12.168 45.663 39.265 45.663 70.73 0 12.106-2.771 23.563-7.727 33.773-3.27 6.749-3.352 14.61-.292 21.461z" fill="#deddf5"></path><path d="m204.825 426.7c-5.244-1.844-11.189-.381-15.011 3.884-8.521 9.499-20.895 15.475-34.659 15.475-23.625 0-43.149-17.608-46.147-40.419-.464-3.524-3.503-6.13-7.058-6.13-27.045 0-52.185-11.055-70.74-28.859-18.547-17.803-30.498-42.375-31.178-69.411-.371-14.939 2.504-29.158 7.975-42.016 3.41-8.016 3.132-17.113-.917-24.82-4.523-8.613-7.088-18.422-7.088-28.828 0-34.278 27.787-62.065 62.055-62.065 2.658 0 5.275.165 7.841.495 8.685 1.092 17.01-4.204 19.607-12.57 11.467-37.029 45.436-64.167 85.917-65.445-31.22 56.358-83.528 194.707 29.403 360.709z" fill="#c7c4ea"></path><path d="m473.208 259.874c0 34.216-26.376 54.307-62.055 54.307-13.445 0-22.213-2.741-29.353-6.81-5.656-3.225-12.662-2.442-17.546 1.875-6.635 5.852-13.693 9.427-23.378 11.488-4.235.896-7.305 4.574-7.305 8.902v.062c0 8.562-3.472 16.33-9.087 21.945s-13.363 9.087-21.935 9.087c-17.144 0-31.033-13.899-31.033-31.033v-12.827c0-10.633-10.447-18.02-20.513-14.6-6.965 2.359-15.661 4.152-26.036 4.152-6.615 0-13.033-.835-19.153-2.39-7.367-1.886-14.95 2.081-17.886 9.077-5.625 13.415-14.908 24.933-26.613 33.268-12.673 9.036-28.199 14.352-44.952 14.352-43.386 0-78.457-35.628-77.561-79.23.865-41.635 35.092-75.49 76.747-75.923 6.893-.072 13.579.762 19.957 2.39.144.041.299.072.443.103 7.222 1.618 14.579-2.318 17.453-9.19 11.715-27.963 39.347-47.61 71.565-47.61 31.857 0 59.201 19.205 71.142 46.652 2.895 6.666 10.076 10.386 17.185 8.923 4.049-.835 8.232-1.267 12.518-1.267 5.162 0 10.169.628 14.96 1.824 7.923 1.968 16.104-2.442 18.525-10.252 6.903-22.172 27.612-38.121 51.855-38.121 29.992 0 54.297 16.557 54.297 46.549 0 5.028-1.545 9.963-3.544 14.589-2.246 5.193-1.515 11.199 1.989 15.63 4.544 5.749 9.314 13.919 9.314 24.078z" fill="#30cd9c"></path><path d="m161.315 346.378c-12.673 9.036-28.199 14.352-44.952 14.352-43.386 0-78.457-35.628-77.561-79.23.865-41.635 35.092-75.49 76.747-75.923 6.893-.072 13.579.762 19.957 2.39.144.041.299.072.443.103-1.514 40.945 4.791 87.669 25.366 138.308z" fill="#18c08b"></path><g fill="#fce3a0"><path d="m422.507 228.993-21.409-8.964c-5.308-2.223-7.079-7.103-6.967-10.93.052-1.765.724-7.7 7.183-9.967 13.049-4.58 23.896 3.976 25.938 5.738.39.336 1.576 1.36 3.488 1.781 4.167.919 8.291-1.718 9.208-5.885.649-2.951-.482-5.879-2.677-7.663-9.195-7.894-24.786-14.27-41.074-8.552-10.472 3.675-17.183 12.907-17.513 24.093-.333 11.254 6.122 21.319 16.445 25.641l21.558 9.027c.102.043.206.084.31.122 9.828 3.625 14.698 9.992 13.363 17.469-1.249 6.994-8.129 14.428-18.419 14.428-11.509 0-21.395-5.224-26.087-10.401-2.866-3.162-7.752-3.403-10.915-.537-3.162 2.866-3.403 7.752-.537 10.915 8.521 9.402 23.256 15.478 37.539 15.478 16.408 0 30.867-11.679 33.633-27.166 2.109-11.816-2.849-27.098-23.067-34.627z"></path><path d="m136.001 232.561c-6.089-2.38-12.714-3.678-19.638-3.678-29.93 0-54.276 24.346-54.276 54.266 0 29.93 24.346 54.276 54.276 54.276 14.033 0 26.819-5.347 36.462-14.105 10.942-9.942 17.814-24.263 17.814-40.171 0-22.997-14.383-42.707-34.638-50.588zm11.622 73.573c-7.068 9.602-18.442 15.836-31.259 15.836-21.399 0-38.822-17.412-38.822-38.822 0-21.399 17.422-38.812 38.822-38.812 7.676 0 14.847 2.236 20.874 6.1 10.787 6.903 17.948 18.988 17.948 32.712-.001 8.593-2.814 16.547-7.563 22.986z"></path><path d="m224.967 174.575c-29.92 0-54.266 24.346-54.266 54.276 0 29.92 24.346 54.266 54.266 54.266 29.93 0 54.276-24.346 54.276-54.266 0-29.93-24.346-54.276-54.276-54.276zm0 93.088c-21.399 0-38.811-17.412-38.811-38.812 0-21.409 17.412-38.822 38.811-38.822 21.41 0 38.822 17.412 38.822 38.822 0 21.4-17.412 38.812-38.822 38.812z"></path><path d="m321.939 228.882h-19.39c-4.276 0-7.727 3.452-7.727 7.727v93.088c0 4.265 3.452 7.727 7.727 7.727 4.265 0 7.727-3.462 7.727-7.727v-31.064h11.663c19.236 0 34.876-15.64 34.876-34.876 0-19.235-15.64-34.875-34.876-34.875zm0 54.297h-11.663v-38.842h11.663c10.715 0 19.421 8.706 19.421 19.421 0 10.705-8.706 19.421-19.421 19.421z"></path></g><path d="m152.826 323.32c-9.644 8.758-22.43 14.105-36.462 14.105-29.93 0-54.276-24.346-54.276-54.276 0-29.92 24.346-54.266 54.276-54.266 6.924 0 13.548 1.298 19.638 3.678.237 5.862.649 11.818 1.236 17.876-6.027-3.864-13.198-6.1-20.874-6.1-21.399 0-38.822 17.412-38.822 38.812 0 21.409 17.422 38.822 38.822 38.822 12.817 0 24.192-6.233 31.259-15.836 1.555 5.666 3.286 11.395 5.203 17.185z" fill="#ffce71"></path><circle cx="488.727" cy="23.273" fill="#fce3a0" r="23.273"></circle><circle cx="279.273" cy="480.969" fill="#ea5b70" r="15.515"></circle><circle cx="263.757" cy="31.031" fill="#30cd9c" r="15.515"></circle><path d="m56.123 98.946c-3.887 2.221-8.809 1.306-11.639-2.162l-40.042-49.083c-7.701-9.44-5.082-23.535 5.495-29.58 10.577-6.044 24.051-1.144 28.274 10.283l21.958 59.417c1.552 4.199-.16 8.904-4.046 11.125z" fill="#d34459"></path><path d="m74.037 442.956c3.009 3.314 3.182 8.318.408 11.831l-39.255 49.715c-7.55 9.561-21.878 10.055-30.068 1.036-8.19-9.019-6.322-23.233 3.921-29.829l53.257-34.296c3.763-2.424 8.728-1.771 11.737 1.543z" fill="#ffce71"></path><path d="m429.406 421.534c3.193-3.137 8.186-3.507 11.806-.873l51.22 37.269c9.851 7.168 10.908 21.465 2.218 30.004-8.69 8.538-22.967 7.231-29.96-2.745l-36.364-51.867c-2.57-3.664-2.113-8.65 1.08-11.788z" fill="#30cd9c"></path></g></svg>